<?xml version="1.0" standalone="no"?>
<!DOCTYPE svg PUBLIC "-//W3C//DTD SVG 20010904//EN"
 "http://www.w3.org/TR/2001/REC-SVG-20010904/DTD/svg10.dtd">
<svg version="1.0" xmlns="http://www.w3.org/2000/svg"
 width="499.000000pt" height="499.000000pt" viewBox="0 0 499.000000 499.000000"
 preserveAspectRatio="xMidYMid meet">

<g transform="translate(0.000000,499.000000) scale(0.100000,-0.100000)"
fill="#000000" stroke="none">
<path d="M2426 4673 c-12 -12 -6 -33 9 -33 8 0 15 6 15 14 0 17 -14 28 -24 19z"/>
<path d="M1836 4602 c-2 -4 -1 -26 4 -48 15 -61 14 -63 -27 -57 -29 4 -45 0
-65 -17 -25 -19 -28 -28 -28 -76 0 -60 19 -107 49 -124 32 -17 80 -12 93 9 9
15 15 17 25 9 25 -20 25 0 5 104 -12 57 -24 124 -28 151 -6 46 -17 66 -28 49z
m-13 -123 c64 -29 71 -175 10 -191 -74 -20 -127 119 -68 177 28 29 26 28 58
14z"/>
<path d="M2336 4563 c-3 -10 -9 -36 -15 -58 -25 -102 -32 -125 -39 -125 -4 0
-20 37 -36 83 -30 84 -41 105 -52 94 -9 -9 78 -217 91 -217 7 0 18 21 25 48 6
26 21 74 31 106 10 33 19 66 19 73 0 19 -18 16 -24 -4z"/>
<path d="M2420 4465 c0 -96 3 -115 15 -115 12 0 15 19 15 115 0 96 -3 115 -15
115 -12 0 -15 -19 -15 -115z"/>
<path d="M2569 4565 c-53 -29 -72 -139 -33 -192 28 -38 86 -44 120 -12 22 21
32 49 18 49 -3 0 -15 -11 -26 -25 -25 -32 -71 -34 -92 -3 -9 12 -16 42 -16 66
0 92 61 142 107 88 13 -15 29 -26 36 -23 17 5 -47 67 -70 67 -10 -1 -30 -7
-44 -15z"/>
<path d="M3151 4544 c-38 -49 -23 -92 51 -149 71 -53 76 -107 14 -130 -21 -7
-35 -5 -64 10 -34 19 -40 28 -59 95 -4 13 -6 12 -14 -2 -15 -27 0 -65 37 -98
47 -41 113 -43 143 -4 12 15 21 41 21 61 0 35 -13 52 -88 115 -59 49 -33 119
38 103 33 -7 70 -48 70 -76 0 -11 5 -19 10 -19 13 0 13 46 0 71 -15 26 -62 49
-104 49 -25 0 -40 -7 -55 -26z"/>
<path d="M2767 4540 c-34 -27 -53 -106 -37 -155 23 -69 87 -85 142 -36 27 24
32 36 36 89 4 58 3 63 -26 92 -36 36 -77 39 -115 10z m103 -27 c17 -22 21 -37
17 -72 -9 -84 -71 -127 -118 -80 -18 18 -21 30 -17 82 4 47 9 64 27 78 33 27
66 24 91 -8z"/>
<path d="M2007 4539 c-41 -24 -58 -98 -36 -156 28 -75 86 -93 140 -45 27 24
33 37 36 83 4 45 1 60 -19 89 -20 29 -30 35 -63 37 -22 2 -48 -2 -58 -8z m97
-31 c54 -87 1 -208 -74 -168 -49 26 -62 129 -23 173 24 25 79 22 97 -5z"/>
<path d="M3417 4483 c-12 -11 -8 -23 8 -23 8 0 15 7 15 15 0 16 -12 20 -23 8z"/>
<path d="M1620 4443 c0 -4 8 -42 17 -85 19 -90 11 -123 -33 -134 -43 -11 -57
7 -79 96 -11 46 -27 86 -34 88 -14 5 -13 -8 18 -128 14 -52 22 -68 44 -78 22
-11 31 -10 55 2 16 8 33 23 37 33 6 17 7 17 20 0 7 -10 15 -15 18 -10 8 12
-44 223 -54 223 -5 0 -9 -3 -9 -7z"/>
<path d="M3494 4393 c-46 -104 -94 -223 -94 -233 0 -27 19 -3 42 53 14 34 42
99 62 144 19 46 31 85 26 88 -6 3 -21 -20 -36 -52z"/>
<path d="M1220 4388 c0 -11 89 -288 95 -295 2 -3 121 44 149 59 11 6 15 13 9
19 -6 6 -32 0 -68 -16 -32 -14 -63 -24 -70 -22 -6 3 -24 47 -40 98 -36 121
-55 169 -66 169 -5 0 -9 -6 -9 -12z"/>
<path d="M3348 4295 c-25 -70 -33 -105 -25 -105 7 0 28 44 47 97 19 53 37 101
38 105 2 4 -2 8 -10 8 -8 0 -28 -43 -50 -105z"/>
<path d="M1135 4307 c4 -46 11 -55 28 -38 9 10 9 15 -5 25 -9 6 -18 21 -21 31
-2 11 -3 3 -2 -18z"/>
<path d="M3556 4319 c-13 -39 -28 -221 -20 -229 6 -6 39 19 89 70 43 44 76 83
72 87 -4 4 -39 -24 -77 -62 -78 -77 -77 -78 -56 50 8 45 10 84 5 89 -5 6 -10
4 -13 -5z"/>
<path d="M1071 4303 c-2 -31 17 -75 29 -68 15 9 12 35 -4 35 -8 0 -17 12 -19
28 -3 20 -4 22 -6 5z"/>
<path d="M3744 4186 c-25 -19 -11 -32 21 -18 21 10 29 8 55 -14 33 -28 36 -41
17 -68 -12 -17 -15 -16 -65 3 -65 26 -67 26 -92 1 -45 -45 -6 -120 61 -120 19
0 29 -5 29 -15 0 -34 20 -11 60 70 50 99 48 121 -9 153 -46 26 -51 26 -77 8z
m40 -121 c31 -13 35 -18 27 -34 -27 -50 -94 -56 -120 -9 -29 51 19 74 93 43z"/>
<path d="M917 4152 c-17 -18 -14 -25 53 -145 62 -110 78 -147 67 -147 -2 0
-65 26 -140 59 -134 58 -136 58 -154 39 -17 -19 -17 -21 17 -51 20 -18 73 -66
119 -107 90 -81 101 -89 101 -68 0 8 -45 54 -99 103 -55 49 -98 92 -95 96 4 7
58 -13 203 -77 105 -47 107 -34 22 120 -38 69 -67 128 -63 130 4 2 52 -36 107
-85 68 -60 103 -85 110 -78 7 7 0 19 -20 36 -29 25 -105 94 -176 160 -34 33
-36 33 -52 15z"/>
<path d="M3995 4144 c-4 -10 -11 -28 -17 -39 -7 -15 -3 -13 18 7 22 21 26 30
16 40 -9 9 -13 7 -17 -8z"/>
<path d="M4042 4107 c-6 -7 -7 -18 -3 -26 7 -11 11 -9 20 7 13 24 -1 39 -17
19z"/>
<path d="M2018 4065 c-159 -29 -321 -78 -349 -106 -16 -16 -19 -34 -19 -124 0
-101 1 -105 25 -121 24 -16 31 -16 98 0 187 43 315 67 347 64 l35 -3 -3 -370
c-1 -203 -5 -565 -8 -803 -6 -387 -8 -434 -23 -440 -30 -13 -187 -8 -213 6
-29 16 -31 34 -44 388 l-7 171 46 26 c111 65 197 196 205 311 9 120 -33 232
-135 364 -60 77 -67 82 -101 82 -43 0 -171 -51 -261 -103 -34 -21 -65 -37 -69
-37 -4 0 -20 -11 -35 -25 -26 -25 -27 -28 -29 -153 -1 -70 -1 -206 1 -302 5
-308 -23 -613 -58 -634 -19 -12 -83 50 -112 110 -56 112 -57 200 -14 609 13
121 27 280 31 353 7 130 6 133 -16 157 -28 29 -60 32 -88 8 -43 -36 -205 -231
-261 -313 -111 -161 -186 -343 -217 -524 -24 -132 -14 -366 20 -501 47 -189
109 -334 213 -495 170 -263 398 -477 653 -613 200 -106 371 -155 628 -178 284
-26 625 41 894 176 495 247 830 674 924 1176 13 69 18 144 18 284 0 214 -7
244 -59 256 -201 48 -263 74 -347 143 -113 92 -153 242 -114 420 20 88 24 80
-79 177 -112 105 -117 109 -146 109 -69 0 -167 -186 -190 -361 -28 -209 46
-419 225 -634 128 -155 148 -318 52 -423 -103 -114 -284 -61 -371 107 -16 32
-16 72 -10 590 l7 556 -23 21 c-28 25 -218 94 -259 94 -57 0 -55 23 -57 -684
-1 -358 -2 -666 -2 -683 -1 -25 -7 -36 -31 -48 -40 -21 -86 -19 -110 5 -20 20
-20 33 -20 698 0 372 -3 733 -6 802 -3 71 -1 131 4 139 9 13 116 -4 392 -64
51 -11 70 -12 90 -2 24 12 25 16 28 121 4 140 0 146 -110 176 -176 48 -290 61
-553 66 -233 3 -259 2 -387 -21z m607 -10 c156 -16 322 -49 375 -74 l35 -16 0
-110 0 -110 -40 1 c-22 0 -116 17 -210 37 -93 21 -192 37 -219 37 l-49 0 7
-827 c8 -902 5 -862 64 -884 38 -15 108 -2 140 26 l27 23 3 685 c2 573 5 686
16 690 8 3 65 -14 128 -37 l113 -43 5 -580 5 -580 29 -39 c84 -114 139 -148
236 -149 136 -1 228 90 238 232 7 107 -38 203 -168 357 -171 203 -220 518
-115 740 37 79 85 146 103 146 10 -1 60 -40 112 -89 l94 -89 -12 -58 c-41
-206 -12 -335 103 -443 82 -78 187 -124 377 -165 24 -6 27 -11 35 -73 11 -96
8 -304 -6 -397 -111 -700 -699 -1257 -1446 -1368 -135 -20 -367 -15 -505 10
-440 81 -805 331 -1084 742 -101 148 -190 357 -231 540 -25 113 -31 335 -12
456 43 268 179 524 401 752 111 114 116 112 116 -35 -1 -130 -8 -215 -40 -498
-27 -235 -24 -367 13 -467 31 -85 65 -130 124 -165 44 -25 46 -26 59 -8 49 67
64 226 64 693 l0 383 26 24 c32 29 181 107 270 141 64 24 67 24 86 7 46 -41
120 -145 149 -209 28 -61 32 -80 33 -159 1 -78 -3 -98 -26 -147 -33 -72 -107
-152 -175 -190 -31 -18 -53 -37 -53 -46 6 -199 30 -545 40 -557 21 -25 82 -39
170 -39 89 0 142 16 145 44 1 8 4 380 6 825 l4 810 -55 -2 c-74 -4 -162 -19
-305 -55 -114 -28 -120 -29 -132 -11 -8 9 -11 24 -8 31 3 8 5 51 5 97 l0 83
48 20 c81 35 290 79 452 95 91 9 309 5 435 -8z"/>
<path d="M2160 4029 c-113 -10 -210 -29 -345 -67 l-100 -29 -3 -59 c-2 -32 -1
-73 3 -90 l6 -32 45 14 c76 23 294 62 377 68 l78 6 -6 -438 c-3 -240 -8 -623
-11 -851 l-6 -413 -36 -15 c-90 -38 -259 -24 -312 25 l-29 27 -13 291 -13 291
46 21 c104 48 189 161 204 272 15 103 -33 238 -123 353 -57 73 -57 73 -242
-21 l-135 -67 -8 -115 c-4 -63 -5 -209 -2 -325 6 -213 -6 -465 -25 -551 -17
-74 -50 -144 -69 -144 -28 0 -103 53 -148 104 -68 77 -88 151 -87 321 1 77 13
244 27 370 14 127 29 286 33 355 l6 125 -52 -50 c-76 -73 -229 -280 -282 -382
-68 -128 -116 -282 -135 -426 -14 -103 -14 -141 -4 -244 35 -361 191 -673 481
-964 147 -148 240 -218 400 -303 188 -99 379 -151 605 -165 167 -10 302 0 446
35 516 122 923 433 1144 874 107 213 158 430 159 675 0 175 -5 215 -31 215
-43 0 -157 36 -240 76 -169 81 -253 197 -261 363 -3 49 1 114 9 155 7 39 14
74 14 77 0 3 -40 43 -88 89 -102 96 -90 98 -157 -35 -128 -254 -77 -520 153
-804 87 -107 121 -185 121 -281 1 -132 -63 -228 -177 -266 -135 -45 -279 26
-361 176 l-29 53 7 557 7 557 -101 37 c-56 20 -105 36 -109 36 -4 0 -7 -303
-7 -673 1 -762 7 -711 -80 -741 -26 -9 -61 -16 -78 -16 -49 0 -98 32 -112 71
-8 26 -13 254 -16 868 l-4 834 81 -7 c44 -3 156 -22 250 -41 93 -19 173 -35
177 -35 9 0 10 89 2 142 -6 34 -11 39 -53 52 -189 62 -519 89 -791 65z m83
-2074 c22 -12 32 -12 48 -2 18 11 23 8 48 -22 17 -20 33 -31 40 -27 6 4 27 -2
46 -14 27 -16 39 -19 54 -11 11 6 32 11 47 11 40 0 64 26 57 61 -5 29 2 35 23
21 15 -9 58 -111 51 -119 -4 -3 10 -25 29 -49 24 -28 34 -49 30 -61 -9 -26
-38 -58 -65 -72 l-23 -13 25 -26 c37 -38 50 -77 31 -92 -18 -16 -18 -39 1 -60
9 -10 17 -35 19 -56 4 -46 36 -75 61 -54 12 10 18 10 30 0 8 -7 24 -10 35 -7
15 4 20 0 20 -16 0 -11 11 -33 25 -47 l25 -27 -20 -18 c-11 -10 -20 -23 -20
-29 0 -32 -154 -132 -194 -127 -10 2 -35 -14 -56 -34 l-37 -37 -7 26 c-7 28
-42 50 -97 60 -23 4 -46 19 -66 40 l-30 34 24 11 c24 11 31 35 13 46 -5 3 -19
1 -30 -5 -14 -7 -31 -8 -55 -1 -21 6 -35 6 -35 0 0 -5 -5 -9 -11 -9 -5 0 -8 4
-5 9 3 5 -1 11 -9 14 -8 4 -25 23 -38 44 -13 21 -60 67 -103 103 -43 35 -85
71 -93 78 -10 9 -28 12 -53 9 -36 -5 -39 -3 -63 36 l-25 42 22 18 c51 41 58
47 58 55 0 5 -16 29 -35 53 -22 28 -35 55 -35 74 0 34 -30 89 -59 107 -18 11
-13 14 47 35 37 13 75 33 86 46 13 16 30 22 57 23 26 0 47 7 61 21 l20 21 52
-24 c28 -14 64 -31 79 -39z"/>
<path d="M626 3791 c-8 -12 2 -18 116 -82 54 -30 98 -57 98 -61 0 -9 -58 -16
-192 -24 -85 -5 -121 -10 -130 -21 -14 -18 -28 -7 144 -107 79 -46 130 -70
135 -64 8 14 -9 26 -124 91 -51 29 -93 55 -93 59 0 3 39 9 88 13 214 16 237
19 240 36 2 11 -36 38 -132 92 -74 43 -137 77 -140 77 -3 0 -7 -4 -10 -9z"/>
<path d="M4347 3693 c-13 -12 -7 -23 13 -23 13 0 18 5 14 15 -7 16 -17 19 -27
8z"/>
<path d="M4335 3617 c-11 -18 -27 -32 -35 -32 -8 -1 -54 -20 -102 -42 -268
-127 -335 -427 -142 -633 202 -216 577 -158 704 111 99 211 -17 460 -250 535
-30 9 -60 21 -67 26 -7 6 -17 7 -22 3 -10 -6 -37 17 -56 48 -9 14 -13 11 -30
-16z m136 -103 c12 -14 11 -16 -5 -13 -11 2 -21 10 -24 17 -5 17 13 15 29 -4z
m-207 -8 c-6 -16 -34 -30 -34 -18 0 5 5 13 12 20 16 16 29 15 22 -2z m300 -14
c57 -28 133 -110 162 -175 23 -52 28 -75 27 -142 0 -69 -4 -90 -32 -147 -75
-157 -255 -239 -442 -201 -121 24 -237 125 -276 238 -25 73 -21 182 10 248 39
85 142 187 189 187 29 0 7 -33 -46 -69 -90 -62 -145 -194 -126 -300 25 -140
118 -233 269 -270 59 -15 77 -15 130 -5 134 28 236 115 272 236 27 88 22 140
-23 227 -27 53 -46 75 -98 114 -87 64 -90 66 -90 78 0 12 30 4 74 -19z m-254
-322 c11 0 33 -23 56 -60 l39 -60 5 58 5 57 43 3 43 3 -3 -133 -3 -133 -34 0
c-41 -1 -51 7 -95 74 l-35 54 -3 -64 -3 -64 -40 0 -40 0 -3 124 c-3 126 5 158
35 146 8 -3 23 -5 33 -5z"/>
<path d="M405 3384 c-32 -77 -45 -118 -38 -125 7 -7 17 7 32 40 12 28 25 51
30 51 4 0 66 -25 136 -55 88 -38 132 -52 139 -45 15 15 4 21 -124 74 -157 64
-147 55 -123 114 17 39 18 52 8 56 -9 3 -28 -32 -60 -110z"/>
<path d="M330 3130 c-10 -10 -28 -50 -39 -87 -30 -100 -30 -105 -1 -114 88
-27 284 -78 288 -74 14 14 -13 33 -63 45 l-57 14 6 35 c4 20 9 62 12 93 6 52
4 59 -19 82 -33 33 -97 36 -127 6z m105 -30 c21 -23 22 -50 5 -119 -8 -36 -17
-51 -28 -51 -30 0 -106 27 -110 38 -5 17 28 121 44 137 22 21 68 19 89 -5z"/>
<path d="M222 2769 c3 -10 38 -17 124 -25 65 -6 127 -14 137 -19 42 -18 51
-104 15 -150 l-22 -28 -133 6 c-108 6 -133 4 -133 -7 0 -8 17 -16 46 -20 74
-10 223 -7 246 5 44 24 64 141 32 188 -26 36 -70 49 -198 57 -99 6 -118 5
-114 -7z"/>
<path d="M233 2403 c-72 -3 -93 -7 -93 -18 0 -8 7 -65 16 -127 51 -374 170
-682 389 -1013 341 -515 877 -865 1495 -977 258 -46 613 -34 885 32 943 226
1644 1041 1750 2036 l7 61 -59 5 c-32 3 -110 5 -172 4 l-115 -1 -12 -99 c-70
-552 -381 -1061 -846 -1383 -122 -84 -338 -191 -480 -237 -388 -125 -799 -125
-1177 0 -424 141 -792 432 -1036 819 -143 227 -247 510 -285 780 -20 138 -9
125 -98 123 -42 -1 -119 -4 -169 -5z m344 -553 c25 0 26 -1 8 -20 -12 -14 -15
-27 -10 -47 6 -26 6 -27 -13 -10 -10 9 -22 17 -27 17 -5 0 -17 -8 -27 -17 -19
-17 -19 -16 -13 10 5 20 2 33 -10 47 -18 19 -17 20 8 20 21 0 28 6 34 27 l6
28 10 -28 c6 -20 15 -27 34 -27z m3760 -10 c25 0 26 -1 8 -20 -12 -13 -15 -27
-11 -45 7 -28 -5 -33 -24 -10 -11 14 -15 14 -37 -1 -24 -15 -25 -15 -21 9 1
14 -5 34 -16 46 -19 21 -19 21 8 21 20 0 29 7 37 28 l11 27 10 -27 c7 -21 16
-28 35 -28z m-3423 -565 c4 -17 13 -25 28 -25 20 0 20 -1 3 -20 -12 -13 -15
-27 -11 -45 7 -26 6 -26 -15 -11 -19 13 -24 13 -46 -1 -24 -16 -24 -16 -17 11
4 19 1 33 -11 46 -17 19 -17 20 4 20 14 0 25 9 31 25 5 14 14 25 19 25 5 0 12
-11 15 -25z m3053 -25 c26 0 31 -15 7 -24 -12 -5 -15 -14 -10 -36 6 -31 -2
-38 -22 -18 -9 9 -18 9 -37 0 -24 -11 -25 -10 -20 11 4 15 1 28 -9 36 -22 18
-20 31 4 31 13 0 25 10 32 28 l11 27 10 -27 c8 -20 18 -28 34 -28z m-525 -450
c20 0 20 -1 3 -20 -12 -13 -15 -27 -11 -45 7 -27 -2 -33 -22 -13 -9 9 -18 9
-38 -1 -25 -11 -26 -11 -22 14 4 18 0 30 -14 40 -20 14 -17 37 5 34 26 -3 35
2 41 24 6 22 7 22 22 -5 9 -17 23 -28 36 -28z m-1984 10 c7 -11 21 -20 32 -20
24 0 26 -13 5 -30 -8 -7 -15 -23 -15 -37 0 -21 -3 -22 -20 -13 -14 8 -26 7
-41 -1 -20 -10 -21 -9 -17 16 4 19 0 30 -13 38 -22 14 -26 29 -5 21 14 -5 46
20 46 37 0 16 15 10 28 -11z m632 -235 c7 -18 17 -25 37 -25 l28 0 -23 -18
c-19 -15 -22 -24 -16 -46 7 -28 7 -28 -18 -12 -23 15 -27 15 -38 1 -19 -23
-31 -18 -24 10 4 18 1 32 -11 45 -17 19 -17 20 4 20 13 0 26 9 33 25 6 14 13
25 15 25 2 0 8 -11 13 -25z m680 -17 c0 -4 10 -8 23 -8 21 -1 21 -1 3 -15 -13
-10 -17 -21 -12 -39 7 -29 4 -31 -24 -14 -15 10 -23 9 -40 -7 -20 -18 -20 -18
-14 11 4 21 1 34 -10 43 -23 19 -20 31 8 31 17 0 27 7 32 22 6 21 7 21 20 3 8
-10 14 -22 14 -27z"/>
</g>
</svg>
